<svg width="44" height="44" viewBox="0 0 44 44" fill="none" xmlns="http://www.w3.org/2000/svg">
<rect x="0.5" y="0.5" width="43" height="43" rx="11.5" stroke="#34C759"/>
<path fill-rule="evenodd" clip-rule="evenodd" d="M31.3023 23.1628C31.6876 23.1628 32 23.4752 32 23.8605V23.9129C32 25.6225 32 26.9766 31.8575 28.0363C31.7109 29.1269 31.402 30.0097 30.7058 30.7058C30.0097 31.402 29.1269 31.7109 28.0363 31.8575C26.9766 32 25.6225 32 23.9129 32H23.8605C23.4752 32 23.1628 31.6876 23.1628 31.3023C23.1628 30.917 23.4752 30.6047 23.8605 30.6047C25.6343 30.6047 26.8944 30.6032 27.8504 30.4746C28.7863 30.3488 29.3255 30.1128 29.7192 29.7192C30.1128 29.3255 30.3488 28.7863 30.4746 27.8504C30.6032 26.8944 30.6047 25.6343 30.6047 23.8605C30.6047 23.4752 30.917 23.1628 31.3023 23.1628Z" fill="#34C759"/>
<path fill-rule="evenodd" clip-rule="evenodd" d="M12.6977 23.1628C13.083 23.1628 13.3953 23.4752 13.3953 23.8605C13.3953 25.6343 13.3968 26.8944 13.5254 27.8504C13.6512 28.7863 13.8872 29.3255 14.2808 29.7192C14.6745 30.1128 15.2137 30.3488 16.1496 30.4746C17.1056 30.6032 18.3657 30.6047 20.1395 30.6047C20.5248 30.6047 20.8372 30.917 20.8372 31.3023C20.8372 31.6876 20.5248 32 20.1395 32H20.0871C18.3775 32 17.0234 32 15.9637 31.8575C14.8731 31.7109 13.9903 31.402 13.2942 30.7058C12.598 30.0097 12.2891 29.1269 12.1425 28.0363C12 26.9766 12 25.6225 12 23.9129C12 23.8955 12 23.878 12 23.8605C12 23.4752 12.3124 23.1628 12.6977 23.1628Z" fill="#34C759"/>
<path fill-rule="evenodd" clip-rule="evenodd" d="M20.0871 12L20.1395 12C20.5249 12 20.8372 12.3124 20.8372 12.6977C20.8372 13.083 20.5249 13.3953 20.1395 13.3953C18.3657 13.3953 17.1056 13.3968 16.1496 13.5254C15.2137 13.6512 14.6745 13.8872 14.2808 14.2808C13.8872 14.6745 13.6512 15.2137 13.5254 16.1496C13.3968 17.1056 13.3953 18.3657 13.3953 20.1395C13.3953 20.5248 13.083 20.8372 12.6977 20.8372C12.3124 20.8372 12 20.5248 12 20.1395L12 20.0871C12 18.3775 12 17.0234 12.1425 15.9637C12.2891 14.8731 12.598 13.9903 13.2942 13.2942C13.9903 12.598 14.8731 12.2891 15.9637 12.1425C17.0234 12 18.3775 12 20.0871 12Z" fill="#34C759"/>
<path fill-rule="evenodd" clip-rule="evenodd" d="M27.8504 13.5254C26.8944 13.3968 25.6343 13.3953 23.8605 13.3953C23.4752 13.3953 23.1628 13.083 23.1628 12.6977C23.1628 12.3124 23.4752 12 23.8605 12C23.878 12 23.8955 12 23.9129 12C25.6225 12 26.9766 12 28.0363 12.1425C29.1269 12.2891 30.0097 12.598 30.7058 13.2942C31.402 13.9903 31.7109 14.8731 31.8575 15.9637C32 17.0234 32 18.3775 32 20.0871V20.1395C32 20.5249 31.6876 20.8372 31.3023 20.8372C30.917 20.8372 30.6047 20.5249 30.6047 20.1395C30.6047 18.3657 30.6032 17.1056 30.4746 16.1496C30.3488 15.2137 30.1128 14.6745 29.7192 14.2808C29.3255 13.8872 28.7863 13.6512 27.8504 13.5254Z" fill="#34C759"/>
<path fill-rule="evenodd" clip-rule="evenodd" d="M15.3755 15.3755C14.5581 16.1929 14.5581 17.5084 14.5581 20.1395V23.8605C14.5581 26.4916 14.5581 27.8071 15.3755 28.6245C16.1929 29.4419 17.5084 29.4419 20.1395 29.4419H23.8605C26.4916 29.4419 27.8071 29.4419 28.6245 28.6245C29.4419 27.8071 29.4419 26.4916 29.4419 23.8605V20.1395C29.4419 17.5084 29.4419 16.1929 28.6245 15.3755C27.8071 14.5581 26.4916 14.5581 23.8605 14.5581H20.1395C17.5084 14.5581 16.1929 14.5581 15.3755 15.3755ZM19.0677 24.5435C19.2685 24.2726 19.6508 24.2158 19.9217 24.4165C20.5145 24.856 21.2301 25.1105 22 25.1105C22.7699 25.1105 23.4855 24.856 24.0783 24.4165C24.3492 24.2158 24.7315 24.2726 24.9323 24.5435C25.1331 24.8143 25.0762 25.1966 24.8054 25.3974C24.0139 25.9841 23.0459 26.3314 22 26.3314C20.9541 26.3314 19.9861 25.9841 19.1946 25.3974C18.9238 25.1966 18.8669 24.8143 19.0677 24.5435ZM25.2558 20.4302C25.2558 21.1045 24.8914 21.6512 24.4419 21.6512C23.9923 21.6512 23.6279 21.1045 23.6279 20.4302C23.6279 19.7559 23.9923 19.2093 24.4419 19.2093C24.8914 19.2093 25.2558 19.7559 25.2558 20.4302ZM19.5581 21.6512C20.0077 21.6512 20.3721 21.1045 20.3721 20.4302C20.3721 19.7559 20.0077 19.2093 19.5581 19.2093C19.1086 19.2093 18.7442 19.7559 18.7442 20.4302C18.7442 21.1045 19.1086 21.6512 19.5581 21.6512Z" fill="#34C759"/>
</svg>
