<svg width="18" height="18" viewBox="0 0 18 18" fill="none" xmlns="http://www.w3.org/2000/svg">
<path d="M8.99984 4.20829C9.34502 4.20829 9.62484 4.48811 9.62484 4.83329V9.83329C9.62484 10.1785 9.34502 10.4583 8.99984 10.4583C8.65466 10.4583 8.37484 10.1785 8.37484 9.83329V4.83329C8.37484 4.48811 8.65466 4.20829 8.99984 4.20829Z" fill="#9AA0A6"/>
<path d="M8.99984 13.1666C9.46007 13.1666 9.83317 12.7935 9.83317 12.3333C9.83317 11.8731 9.46007 11.5 8.99984 11.5C8.5396 11.5 8.1665 11.8731 8.1665 12.3333C8.1665 12.7935 8.5396 13.1666 8.99984 13.1666Z" fill="#9AA0A6"/>
<path fill-rule="evenodd" clip-rule="evenodd" d="M0.0415039 8.99996C0.0415039 4.05241 4.05229 0.041626 8.99984 0.041626C13.9474 0.041626 17.9582 4.05241 17.9582 8.99996C17.9582 13.9475 13.9474 17.9583 8.99984 17.9583C4.05229 17.9583 0.0415039 13.9475 0.0415039 8.99996ZM8.99984 1.29163C4.74264 1.29163 1.2915 4.74276 1.2915 8.99996C1.2915 13.2572 4.74264 16.7083 8.99984 16.7083C13.257 16.7083 16.7082 13.2572 16.7082 8.99996C16.7082 4.74276 13.257 1.29163 8.99984 1.29163Z" fill="#9AA0A6"/>
</svg>
