<svg width="200" height="200" viewBox="0 0 200 200" fill="none" xmlns="http://www.w3.org/2000/svg">
<mask id="mask0_3567_4600" style="mask-type:luminance" maskUnits="userSpaceOnUse" x="0" y="0" width="200" height="200">
<path d="M200 0H0V200H200V0Z" fill="white"/>
</mask>
<g mask="url(#mask0_3567_4600)">
<path d="M100 179.333C144.183 179.333 180 143.516 180 99.3335C180 55.1508 144.183 19.3335 100 19.3335C55.8173 19.3335 20 55.1508 20 99.3335C20 143.516 55.8173 179.333 100 179.333Z" fill="#101010"/>
<path d="M70.0002 42.3706H131.691C137.583 42.3706 142.358 47.1459 142.358 53.0373V135.057C142.358 140.948 137.583 145.723 131.691 145.723H70.0002C64.1088 145.723 59.3335 140.948 59.3335 135.057V53.0373C59.3335 47.1459 64.1088 42.3706 70.0002 42.3706Z" fill="url(#paint0_linear_3567_4600)"/>
<path d="M69.9332 55.7041H96.7332C98.5372 55.7041 99.9998 57.1668 99.9998 58.9708C99.9998 60.7748 98.5372 62.2374 96.7332 62.2374H69.9332C68.1292 62.2374 66.6665 60.7748 66.6665 58.9708C66.6665 57.1668 68.1292 55.7041 69.9332 55.7041Z" fill="black"/>
<path d="M69.9332 74.2373H130.067C131.871 74.2373 133.333 75.7 133.333 77.504C133.333 79.308 131.871 80.7706 130.067 80.7706H69.9332C68.1292 80.7706 66.6665 79.308 66.6665 77.504C66.6665 75.7 68.1292 74.2373 69.9332 74.2373Z" fill="#D5D5D5"/>
<path d="M69.9332 92.771H130.067C131.871 92.771 133.333 94.2337 133.333 96.0377C133.333 97.8417 131.871 99.3043 130.067 99.3043H69.9332C68.1292 99.3043 66.6665 97.8417 66.6665 96.0377C66.6665 94.2337 68.1292 92.771 69.9332 92.771Z" fill="#D5D5D5"/>
<path d="M69.9332 111.304H130.067C131.871 111.304 133.333 112.767 133.333 114.571C133.333 116.375 131.871 117.837 130.067 117.837H69.9332C68.1292 117.837 66.6665 116.375 66.6665 114.571C66.6665 112.767 68.1292 111.304 69.9332 111.304Z" fill="#D5D5D5"/>
<path d="M69.9332 129.837H130.067C131.871 129.837 133.333 131.3 133.333 133.104C133.333 134.908 131.871 136.37 130.067 136.37H69.9332C68.1292 136.37 66.6665 134.908 66.6665 133.104C66.6665 131.3 68.1292 129.837 69.9332 129.837Z" fill="#D5D5D5"/>
<path fill-rule="evenodd" clip-rule="evenodd" d="M123.406 150.375C131.992 150.375 139.972 147.778 146.603 143.326L173.736 169.227L183.576 157.81L157.394 132.817C162.23 126.012 165.073 117.692 165.073 108.708C165.073 85.6971 146.418 67.0417 123.406 67.0417C100.394 67.0417 81.7397 85.6971 81.7397 108.708C81.7397 131.72 100.394 150.375 123.406 150.375ZM158.946 108.708C158.946 128.191 143.152 143.984 123.67 143.984C104.188 143.984 88.3944 128.191 88.3944 108.708C88.3944 89.2264 104.188 73.4331 123.67 73.4331C143.152 73.4331 158.946 89.2264 158.946 108.708Z" fill="#CCC6D9"/>
<path d="M123.667 144.667C143.733 144.667 160 128.549 160 108.667C160 88.7847 143.733 72.6667 123.667 72.6667C103.6 72.6667 87.3335 88.7847 87.3335 108.667C87.3335 128.549 103.6 144.667 123.667 144.667Z" fill="white" fill-opacity="0.3"/>
<path d="M173.734 169.229L183.575 157.811L185.057 159.227C186.495 160.599 187.356 162.517 187.45 164.558C187.545 166.599 186.865 168.595 185.561 170.109C184.256 171.622 182.434 172.528 180.495 172.627C178.556 172.727 176.658 172.011 175.22 170.639L173.738 169.224L173.734 169.229Z" fill="#E1DCEB"/>
<path fill-rule="evenodd" clip-rule="evenodd" d="M37.5427 60.7814C37.5307 59.8307 37.4113 58.8714 37.1727 57.906C36.336 54.518 32.604 52.3427 28.632 51.8314C24.662 51.32 20.5327 52.484 18.9413 55.4314C18.0313 57.116 17.906 58.568 18.278 59.7927C18.648 61.0107 19.5267 62.02 20.7193 62.8074C24.0447 64.9987 29.8687 65.446 32.526 64.53C33.7547 64.1054 34.9553 63.594 36.124 63.0087C35.456 66.8394 32.9653 70.468 29.6413 73.738C22.4173 80.8454 11.208 86.24 5.10332 88.2234C4.77532 88.33 4.59332 88.6934 4.69532 89.036C4.79732 89.3787 5.14599 89.5707 5.47399 89.464C11.6993 87.4414 23.1273 81.932 30.494 74.684C34.3 70.9407 37.0113 66.726 37.4747 62.2954C46.078 57.4947 53.1426 48.7847 59.1833 41.454C59.408 41.184 59.378 40.7727 59.1173 40.538C58.8566 40.3054 58.4647 40.3347 58.24 40.6067C52.4453 47.6374 45.7207 56 37.5427 60.7814ZM36.292 61.478C36.3393 60.4094 36.2387 59.324 35.9673 58.2294C35.244 55.2967 31.9187 53.5627 28.48 53.12C26.3727 52.8494 24.2053 53.0727 22.5053 53.866C21.4367 54.364 20.5567 55.0867 20.026 56.07C19.3293 57.36 19.1787 58.4634 19.464 59.3994C19.75 60.342 20.4593 61.0994 21.3833 61.7074C24.414 63.7054 29.7167 64.13 32.1353 63.2954C33.5613 62.804 34.946 62.1907 36.292 61.478Z" fill="white"/>
<path fill-rule="evenodd" clip-rule="evenodd" d="M38.923 150.262C39.637 149.995 40.3883 149.639 40.9676 149.124C41.6556 148.512 41.9356 147.724 42.123 146.895C42.3643 145.829 42.461 144.694 42.7536 143.627C42.8616 143.23 43.0703 143.08 43.1596 143.014C43.3856 142.846 43.6143 142.801 43.829 142.818C44.0836 142.838 44.4336 142.939 44.6643 143.388C44.697 143.453 44.7396 143.551 44.7683 143.685C44.789 143.784 44.803 144.091 44.825 144.218C44.8803 144.531 44.9263 144.844 44.9703 145.158C45.115 146.204 45.1983 147.092 45.6556 148.054C46.2763 149.358 46.8983 150.156 47.7416 150.51C48.5576 150.852 49.5323 150.788 50.7783 150.52C50.897 150.49 51.0143 150.464 51.1303 150.442C51.6796 150.342 52.205 150.721 52.313 151.297C52.421 151.872 52.0716 152.433 51.5269 152.56C51.4136 152.586 51.3016 152.611 51.191 152.634C49.507 153.073 47.5576 154.638 46.425 156.009C46.0763 156.432 45.565 157.614 45.0436 158.367C44.659 158.924 44.2263 159.29 43.863 159.42C43.6196 159.507 43.415 159.493 43.2456 159.449C42.999 159.386 42.795 159.245 42.6383 159.022C42.553 158.9 42.4736 158.736 42.4356 158.527C42.4176 158.426 42.4156 158.171 42.4163 158.055C42.3096 157.67 42.1796 157.295 42.085 156.907C41.859 155.98 41.4156 155.394 40.889 154.62C40.3963 153.895 39.867 153.439 39.091 153.076C38.9903 153.05 38.1756 152.84 37.8883 152.72C37.4683 152.543 37.2676 152.247 37.195 152.088C37.0716 151.818 37.059 151.582 37.0836 151.384C37.1203 151.094 37.2443 150.845 37.4643 150.644C37.6003 150.52 37.8036 150.398 38.0763 150.339C38.2863 150.293 38.845 150.266 38.923 150.262ZM43.701 148.753C43.7383 148.842 43.779 148.93 43.8216 149.02C44.7303 150.931 45.747 151.998 46.983 152.516L47.0243 152.532C46.1976 153.178 45.449 153.9 44.8776 154.592C44.6416 154.878 44.3303 155.47 43.993 156.076C43.687 155.03 43.187 154.29 42.5576 153.363C42.0763 152.656 41.573 152.124 40.9536 151.691C41.4343 151.432 41.8923 151.128 42.2916 150.773C42.9563 150.182 43.3956 149.497 43.701 148.753Z" fill="white"/>
</g>
<defs>
<linearGradient id="paint0_linear_3567_4600" x1="100.846" y1="42.3706" x2="100.846" y2="145.723" gradientUnits="userSpaceOnUse">
<stop stop-color="white"/>
<stop offset="0.7188" stop-color="#FAFAFA"/>
</linearGradient>
</defs>
</svg>
