<svg width="140" height="140" viewBox="0 0 140 140" fill="none" xmlns="http://www.w3.org/2000/svg">
<path d="M70.2404 0.625C31.7918 0.625 0.625 31.7918 0.625 70.2404C0.625 108.689 31.7918 139.856 70.2404 139.856C108.689 139.856 139.856 108.689 139.856 70.2404C139.856 31.7918 108.689 0.625 70.2404 0.625Z" fill="#101010"/>
<path d="M102.235 42.5963C105.636 45.9936 105.636 51.5036 102.235 54.9008L56.7033 100.436L54.2424 97.9719L44.3953 88.1283L38.2448 81.9743C36.5461 80.2756 35.6934 78.048 35.6934 75.8238C35.6934 73.5961 36.5461 71.3684 38.2448 69.6697C41.642 66.2687 47.152 66.2687 50.5493 69.6697L56.7033 75.8238L89.9307 42.5963C91.6293 40.8977 93.8567 40.0449 96.0812 40.0449C98.3089 40.0449 100.537 40.8977 102.235 42.5963Z" fill="white"/>
<path d="M70.24 108.529C68.318 108.529 66.7593 106.97 66.7593 105.048C66.7593 103.126 68.318 101.567 70.24 101.567C87.5137 101.567 101.567 87.5142 101.567 70.2405C101.567 68.3185 103.126 66.7598 105.048 66.7598C106.97 66.7598 108.529 68.3185 108.529 70.2405C108.529 91.3528 91.3523 108.529 70.24 108.529Z" fill="#2C2C2C"/>
<path d="M70.2402 125.933C39.5314 125.933 14.5479 100.949 14.5479 70.2404C14.5479 39.5317 39.5314 14.5481 70.2402 14.5481C72.1622 14.5481 73.7209 16.1064 73.7209 18.0289C73.7209 19.9513 72.1622 21.5096 70.2402 21.5096C43.37 21.5096 21.5094 43.3703 21.5094 70.2404C21.5094 97.1105 43.37 118.971 70.2402 118.971C97.1103 118.971 118.971 97.1105 118.971 70.2404C118.971 68.3183 120.53 66.7596 122.452 66.7596C124.374 66.7596 125.932 68.3183 125.932 70.2404C125.932 100.949 100.949 125.933 70.2402 125.933Z" fill="#2C2C2C"/>
</svg>
