<svg width="24" height="24" viewBox="0 0 24 24" fill="none" xmlns="http://www.w3.org/2000/svg">
<path d="M8.63023 10.82C7.94409 10.82 7.38023 11.3839 7.38023 12.07C7.38023 12.7472 7.92668 13.3232 8.63544 13.31H13.6002V21.14C13.6002 21.3401 13.4379 21.5 13.2402 21.5C10.4146 21.5 8.04606 20.5162 6.38504 18.8552C4.72402 17.1942 3.74023 14.8256 3.74023 12C3.74023 9.17437 4.72402 6.80582 6.38504 5.1448C8.04606 3.48378 10.4146 2.5 13.2402 2.5C13.4409 2.5 13.6037 2.6544 13.6102 2.8662V10.82H8.63023Z" fill="#2E3134" stroke="#2E3134"/>
<path d="M20.1859 11.8928L20.1865 11.8935C20.2837 11.9907 20.2747 12.1343 20.1889 12.2144L20.1823 12.2206L20.1759 12.227L17.3365 15.0764C17.3365 15.0764 17.3364 15.0765 17.3363 15.0766C17.2851 15.1277 17.2245 15.1499 17.1601 15.1499C17.0955 15.1499 17.0349 15.1276 16.9836 15.0764C16.8889 14.9816 16.8889 14.8182 16.9836 14.7235L18.5437 13.1635L19.3972 12.3099H18.1901H14.6001V11.8099H18.2001H19.4072L18.5537 10.9564L16.9936 9.39636C16.8989 9.30162 16.8989 9.1382 16.9936 9.04347C17.0883 8.9488 17.2515 8.94873 17.3463 9.04324C17.3464 9.04331 17.3465 9.04339 17.3465 9.04347L20.1859 11.8928Z" fill="#2E3134" stroke="#2E3134"/>
</svg>
