<svg width="24" height="24" viewBox="0 0 24 24" fill="none" xmlns="http://www.w3.org/2000/svg">
<path d="M21.1001 16.185L21.0999 16.1851L21.1071 16.1965C21.1452 16.2571 21.1965 16.37 21.1861 16.5483C21.1754 16.7295 21.0982 17.0196 20.806 17.4258C18.9207 19.9857 15.9314 21.4901 12.7402 21.4901C12.5984 21.4901 12.454 21.4813 12.2914 21.4711L12.2914 21.471L12.2802 21.4705C11.3307 21.4325 10.4093 21.2522 9.53446 20.9479L9.53384 20.9477C5.87071 19.6789 3.11399 16.3126 2.82896 12.395C2.54413 8.22031 4.94969 4.31927 8.84294 2.68147C9.30466 2.49 9.60591 2.48295 9.78719 2.51583C9.96619 2.54831 10.0702 2.62726 10.1266 2.68367C10.1765 2.73349 10.2507 2.83121 10.2802 2.9999C10.3098 3.16981 10.3016 3.45486 10.1118 3.89042L10.1113 3.89156C9.63319 4.99654 9.4002 6.16437 9.40019 7.37012L9.4002 7.37257C9.41084 9.54361 10.2622 11.5492 11.6373 13.0833C13.1928 14.8289 15.427 15.9632 17.8975 16.0696C18.5693 16.1015 19.2364 16.0479 19.8875 15.9324L19.8881 15.9323C20.3774 15.845 20.6687 15.9019 20.8326 15.9703C20.9939 16.0376 21.068 16.1309 21.1001 16.185Z" fill="#2E3134" stroke="#2E3134"/>
</svg>
