<svg width="44" height="44" viewBox="0 0 44 44" fill="none" xmlns="http://www.w3.org/2000/svg">
<rect x="0.5" y="0.5" width="43" height="43" rx="11.5" stroke="#1263FB"/>
<path fill-rule="evenodd" clip-rule="evenodd" d="M17.245 12H26.755C27.9139 12 28.4933 12 28.9606 12.1626C29.8468 12.471 30.5425 13.1872 30.842 14.0995C31 14.5805 31 15.1771 31 16.3701V30.3742C31 31.2324 30.015 31.6878 29.3919 31.1176C29.0258 30.7826 28.4742 30.7826 28.1081 31.1176L27.625 31.5597C26.9834 32.1468 26.0166 32.1468 25.375 31.5597C24.7334 30.9726 23.7666 30.9726 23.125 31.5597C22.4834 32.1468 21.5166 32.1468 20.875 31.5597C20.2334 30.9726 19.2666 30.9726 18.625 31.5597C17.9834 32.1468 17.0166 32.1468 16.375 31.5597L15.8919 31.1176C15.5258 30.7826 14.9742 30.7826 14.6081 31.1176C13.985 31.6878 13 31.2324 13 30.3742V16.3701C13 15.1771 13 14.5805 13.158 14.0995C13.4575 13.1872 14.1532 12.471 15.0394 12.1626C15.5067 12 16.0861 12 17.245 12ZM25.0595 18.4995C25.3353 18.1905 25.3085 17.7164 24.9995 17.4406C24.6905 17.1647 24.2164 17.1915 23.9405 17.5005L20.9286 20.8739L20.0595 19.9005C19.7836 19.5915 19.3095 19.5647 19.0005 19.8406C18.6915 20.1164 18.6647 20.5905 18.9405 20.8995L20.3691 22.4995C20.5114 22.6589 20.7149 22.75 20.9286 22.75C21.1422 22.75 21.3457 22.6589 21.488 22.4995L25.0595 18.4995ZM17.5 24.75C17.0858 24.75 16.75 25.0858 16.75 25.5C16.75 25.9142 17.0858 26.25 17.5 26.25H26.5C26.9142 26.25 27.25 25.9142 27.25 25.5C27.25 25.0858 26.9142 24.75 26.5 24.75H17.5Z" fill="#1263FB"/>
</svg>
