<svg width="66" height="65" viewBox="0 0 66 65" fill="none" xmlns="http://www.w3.org/2000/svg">
<circle cx="33" cy="32.5" r="32.5" fill="#101010"/>
<path fill-rule="evenodd" clip-rule="evenodd" d="M38.4686 16.9165C38.4686 16.3124 37.9789 15.8228 37.3748 15.8228C36.7708 15.8228 36.2811 16.3124 36.2811 16.9165V19.8334C36.2811 19.8342 36.2811 19.835 36.2811 19.8358V43.1639C36.2811 43.1647 36.2811 43.1655 36.2811 43.1662V46.0832C36.2811 46.6872 36.7708 47.1769 37.3748 47.1769C37.9789 47.1769 38.4686 46.6872 38.4686 46.0832V44.2522C40.2323 44.2341 41.7062 44.1738 42.9295 43.9663C44.4286 43.7119 45.6592 43.2202 46.648 42.2314C47.7394 41.14 48.2237 39.7561 48.4536 38.0463C48.677 36.385 48.6769 34.2622 48.6769 31.5822V31.4176C48.6769 28.7375 48.677 26.6147 48.4536 24.9533C48.2237 23.2436 47.7394 21.8597 46.648 20.7683C45.6592 19.7795 44.4286 19.2878 42.9295 19.0334C41.7062 18.8258 40.2323 18.7656 38.4686 18.7474V16.9165ZM38.4686 20.9352V42.0645C40.1985 42.046 41.5152 41.9875 42.5635 41.8096C43.7913 41.6013 44.5397 41.246 45.1012 40.6846C45.7184 40.0674 46.0883 39.2221 46.2856 37.7549C46.4871 36.2562 46.4894 34.2806 46.4894 31.4998C46.4894 28.7191 46.4871 26.7435 46.2856 25.2448C46.0883 23.7776 45.7184 22.9323 45.1012 22.3151C44.5397 21.7536 43.7913 21.3984 42.5635 21.1901C41.5152 21.0122 40.1985 20.9537 38.4686 20.9352Z" fill="white"/>
<path d="M30.0009 18.7394C27.3208 18.7394 25.198 18.7394 23.5367 18.9627C21.8269 19.1926 20.443 19.677 19.3517 20.7683C18.2603 21.8597 17.776 23.2436 17.5461 24.9533C17.3227 26.6147 17.3227 28.7375 17.3228 31.4175V31.5821C17.3227 34.2622 17.3227 36.385 17.5461 38.0463C17.776 39.7561 18.2603 41.14 19.3517 42.2314C20.443 43.3227 21.8269 43.8071 23.5367 44.0369C25.198 44.2603 27.3208 44.2603 30.0008 44.2603H32.9998C33.6039 44.2603 34.0936 43.7706 34.0936 43.1665C34.0936 42.5624 33.6039 42.0728 32.9998 42.0728H30.0832C27.3024 42.0728 25.3268 42.0704 23.8282 41.8689C22.3609 41.6717 21.5156 41.3017 20.8984 40.6846C20.2813 40.0674 19.9113 39.2221 19.7141 37.7549C19.5126 36.2562 19.5103 34.2806 19.5103 31.4998C19.5103 28.7191 19.5126 26.7435 19.7141 25.2448C19.9113 23.7776 20.2813 22.9323 20.8984 22.3151C21.5156 21.6979 22.3609 21.328 23.8282 21.1307C25.3268 20.9292 27.3024 20.9269 30.0832 20.9269H32.9998C33.6039 20.9269 34.0936 20.4372 34.0936 19.8332C34.0936 19.2291 33.6039 18.7394 32.9998 18.7394L30.0009 18.7394Z" fill="white"/>
<path d="M27.1665 32.9582C27.9719 32.9582 28.6248 32.3053 28.6248 31.4998C28.6248 30.6944 27.9719 30.0415 27.1665 30.0415C26.3611 30.0415 25.7082 30.6944 25.7082 31.4998C25.7082 32.3053 26.3611 32.9582 27.1665 32.9582Z" fill="white"/>
<path d="M34.4582 31.4998C34.4582 32.3053 33.8053 32.9582 32.9998 32.9582C32.1944 32.9582 31.5415 32.3053 31.5415 31.4998C31.5415 30.6944 32.1944 30.0415 32.9998 30.0415C33.8053 30.0415 34.4582 30.6944 34.4582 31.4998Z" fill="white"/>
</svg>
