<svg width="395" height="741" viewBox="0 0 395 741" fill="none" xmlns="http://www.w3.org/2000/svg">
<path d="M0 32C0 16.9151 0 9.37258 4.68629 4.68629C9.37258 0 16.9151 0 32 0H363C378.085 0 385.627 0 390.314 4.68629C395 9.37258 395 16.9151 395 32V741H0V32Z" fill="#0E1013"/>
<mask id="mask0_3351_4492" style="mask-type:alpha" maskUnits="userSpaceOnUse" x="0" y="0" width="395" height="741">
<path d="M0 32C0 16.9151 0 9.37258 4.68629 4.68629C9.37258 0 16.9151 0 32 0H363C378.085 0 385.627 0 390.314 4.68629C395 9.37258 395 16.9151 395 32V741H0V32Z" fill="black"/>
</mask>
<g mask="url(#mask0_3351_4492)">
<path d="M7.07176 729C10.151 723.667 17.849 723.667 20.9282 729L27.8564 741H0.143555L7.07176 729Z" fill="#F5F5F5"/>
<path d="M35.0718 729C38.151 723.667 45.849 723.667 48.9282 729L55.8564 741H28.1436L35.0718 729Z" fill="#F5F5F5"/>
<path d="M63.626 728.545C66.7279 723.335 74.2719 723.335 77.3737 728.545L84.7893 741H56.2104L63.626 728.545Z" fill="#F5F5F5"/>
<path d="M92.0718 729C95.151 723.667 102.849 723.667 105.928 729L112.856 741H85.1436L92.0718 729Z" fill="#F5F5F5"/>
<path d="M120.072 729C123.151 723.667 130.849 723.667 133.928 729L140.856 741H113.144L120.072 729Z" fill="#F5F5F5"/>
<path d="M148.072 729C151.151 723.667 158.849 723.667 161.928 729L168.856 741H141.144L148.072 729Z" fill="#F5F5F5"/>
<path d="M176.626 728.545C179.728 723.335 187.272 723.335 190.374 728.545L197.789 741H169.21L176.626 728.545Z" fill="#F5F5F5"/>
<path d="M204.626 728.545C207.728 723.335 215.272 723.335 218.374 728.545L225.789 741H197.21L204.626 728.545Z" fill="#F5F5F5"/>
<path d="M233.072 729C236.151 723.667 243.849 723.667 246.928 729L253.856 741H226.144L233.072 729Z" fill="#F5F5F5"/>
<path d="M261.072 729C264.151 723.667 271.849 723.667 274.928 729L281.856 741H254.144L261.072 729Z" fill="#F5F5F5"/>
<path d="M289.072 729C292.151 723.667 299.849 723.667 302.928 729L309.856 741H282.144L289.072 729Z" fill="#F5F5F5"/>
<path d="M317.626 728.545C320.728 723.335 328.272 723.335 331.374 728.545L338.789 741H310.21L317.626 728.545Z" fill="#F5F5F5"/>
<path d="M346.072 729C349.151 723.667 356.849 723.667 359.928 729L366.856 741H339.144L346.072 729Z" fill="#F5F5F5"/>
<path d="M374.072 729C377.151 723.667 384.849 723.667 387.928 729L394.856 741H367.144L374.072 729Z" fill="#F5F5F5"/>
</g>
<mask id="mask1_3351_4492" style="mask-type:alpha" maskUnits="userSpaceOnUse" x="0" y="0" width="395" height="729">
<rect width="395" height="729" rx="16" fill="white"/>
</mask>
<g mask="url(#mask1_3351_4492)">
<ellipse cy="174.819" rx="16" ry="16.4287" fill="#F5F5F5"/>
<ellipse cx="395" cy="174.819" rx="16" ry="16.4287" fill="#F5F5F5"/>
<path opacity="0.1" d="M540.765 200.63C520.564 258.592 485.818 304.616 446.546 332.378C407.247 360.159 364.377 369.129 326.574 355.547C288.771 341.965 261 307.614 247.658 260.919C234.326 214.257 235.825 156.288 256.026 98.3259C276.228 40.3641 310.973 -5.65995 350.245 -33.4217C389.544 -61.2032 432.414 -70.1734 470.217 -56.5912C508.02 -43.0089 535.791 -8.65789 549.133 38.0372C562.466 84.6991 560.966 142.668 540.765 200.63Z" stroke="white" stroke-width="24"/>
<path opacity="0.1" d="M550.278 90.6171C543.454 127.67 525.849 158.596 503.442 178.766C481.047 198.925 454.434 207.947 428.701 203.062C402.968 198.176 381.364 180 367.657 152.986C353.942 125.958 348.533 90.6629 355.357 53.6095C362.181 16.5562 379.787 -14.3697 402.193 -34.5391C424.589 -54.6986 451.202 -63.7208 476.935 -58.8352C502.668 -53.9495 524.272 -35.773 537.979 -8.759C551.693 18.2682 557.103 53.5637 550.278 90.6171Z" stroke="white" stroke-width="24"/>
<path opacity="0.1" d="M259.517 -104.414C270.277 -67.257 257.63 -25.3372 225.344 12.938C193.134 51.1237 142.261 84.3891 80.1656 102.925C18.07 121.461 -42.4401 121.445 -89.8802 107.035C-137.432 92.5922 -170.412 64.2924 -181.171 27.1354C-191.931 -10.0215 -179.284 -51.9413 -146.998 -90.2165C-114.788 -128.402 -63.9151 -161.668 -1.81952 -180.204C60.2761 -198.74 120.786 -198.723 168.226 -184.314C215.778 -169.871 248.758 -141.571 259.517 -104.414Z" stroke="white" stroke-width="24"/>
</g>
<path d="M16 176L379 176" stroke="#F5F5F5" stroke-width="2" stroke-linecap="round" stroke-dasharray="10 10"/>
</svg>
