<svg width="44" height="44" viewBox="0 0 44 44" fill="none" xmlns="http://www.w3.org/2000/svg">
<rect x="0.5" y="0.5" width="43" height="43" rx="11.5" stroke="#FF3B30"/>
<path fill-rule="evenodd" clip-rule="evenodd" d="M26.375 14.6495C26.0163 14.8566 25.5576 14.7337 25.3505 14.375C25.1434 14.0163 25.2663 13.5576 25.625 13.3505L29.0891 11.3505C29.3518 11.1988 29.68 11.2203 29.9207 11.405C30.1614 11.5897 30.2671 11.9011 30.1886 12.1941L29.1931 15.9093L31.0891 14.8146C31.4478 14.6075 31.9065 14.7304 32.1136 15.0891C32.3208 15.4478 32.1978 15.9065 31.8391 16.1136L28.375 18.1136C28.1123 18.2653 27.7841 18.2438 27.5435 18.0591C27.3028 17.8745 27.1971 17.563 27.2756 17.27L28.271 13.5549L26.375 14.6495Z" fill="#FF3B30"/>
<path fill-rule="evenodd" clip-rule="evenodd" d="M22.6729 16.1495C22.3142 15.9424 22.1912 15.4837 22.3984 15.125C22.6055 14.7663 23.0642 14.6434 23.4229 14.8505L25.1549 15.8505C25.4176 16.0022 25.5631 16.2972 25.5235 16.5979C25.4839 16.8987 25.267 17.146 24.974 17.2245L23.991 17.4879L24.1549 17.5826C24.5136 17.7897 24.6366 18.2484 24.4294 18.6071C24.2223 18.9658 23.7636 19.0887 23.4049 18.8816L21.6729 17.8816C21.4102 17.7299 21.2647 17.4349 21.3043 17.1342C21.3439 16.8334 21.5607 16.5861 21.8538 16.5076L22.8368 16.2442L22.6729 16.1495Z" fill="#FF3B30"/>
<path fill-rule="evenodd" clip-rule="evenodd" d="M23.2847 13.2617C22.4277 13.1719 21.5581 13.5811 21.0991 14.375C20.9194 14.6865 20.8228 15.0225 20.8018 15.3584C20.7549 15.3896 20.709 15.4229 20.6646 15.457C20.2075 15.8135 19.8955 16.3408 19.8174 16.9385C19.7529 17.4258 19.8506 17.9072 20.0776 18.3184C20.2715 18.6699 20.5601 18.9707 20.9229 19.1807L22.6548 20.1807C23.731 20.8018 25.1074 20.4336 25.7285 19.3574C25.8823 19.0908 25.9756 18.8057 26.0122 18.5186C26.1606 18.7979 26.3691 19.0488 26.6304 19.249C27.3525 19.8027 28.3369 19.8682 29.125 19.4131L30.1006 18.8496C30.6782 20.1143 31 21.5195 31 23C31 28.5225 26.5229 33 21 33C15.4771 33 11 28.5225 11 23C11 17.4775 15.4771 13 21 13C21.7861 13 22.5508 13.0898 23.2847 13.2617ZM15.4463 21.252C15.6689 21.2363 15.8965 21.3193 16.0576 21.498C16.5225 22.0156 17.0225 22.25 17.5 22.25C17.7974 22.25 18.1035 22.1592 18.4043 21.9658C18.5869 21.8486 18.7671 21.6934 18.9424 21.498C19.1006 21.3223 19.3237 21.2383 19.5435 21.251C19.7075 21.2607 19.8696 21.3242 20.0015 21.4424C20.3096 21.7197 20.3345 22.1934 20.0576 22.502C19.3887 23.2451 18.5098 23.75 17.5 23.75C16.4902 23.75 15.6113 23.2451 14.9424 22.502C14.6655 22.1934 14.6904 21.7197 14.9985 21.4424C15.1274 21.3262 15.2856 21.2627 15.4463 21.252ZM23.0576 21.498C22.7808 21.1904 22.3066 21.165 21.9985 21.4424C21.6904 21.7197 21.6655 22.1934 21.9424 22.502C22.6113 23.2451 23.4902 23.75 24.5 23.75C25.5098 23.75 26.3887 23.2451 27.0576 22.502C27.3345 22.1934 27.3096 21.7197 27.0015 21.4424C26.6934 21.165 26.2192 21.1904 25.9424 21.498C25.4775 22.0156 24.9775 22.25 24.5 22.25C24.0225 22.25 23.5225 22.0156 23.0576 21.498ZM22 27C22 27.5527 21.5522 28 21 28C20.4478 28 20 27.5527 20 27C20 26.4473 20.4478 26 21 26C21.5522 26 22 26.4473 22 27Z" fill="#FF3B30"/>
</svg>
