<svg width="24" height="24" viewBox="0 0 24 24" fill="none" xmlns="http://www.w3.org/2000/svg">
<path d="M5.02 11.45V11.4498L5.00763 11.4502C4.07536 11.4732 3.47633 11.2521 3.10561 10.8823C2.73275 10.5103 2.5 9.89772 2.5 8.94V5.02C2.5 4.08581 2.73102 3.48109 3.10605 3.10605C3.48109 2.73102 4.08581 2.5 5.02 2.5H8.93C9.89332 2.5 10.5084 2.73305 10.8814 3.10605C11.2521 3.47666 11.4732 4.07536 11.4502 5.00763L11.45 5.00762V5.02V8.93H11.4499L11.4501 8.94207C11.4734 9.90367 11.2501 10.5132 10.8823 10.8819C10.5147 11.2503 9.9081 11.4734 8.95213 11.4501L8.95214 11.45H8.94H5.02ZM4.94 10.26C5.73004 10.26 6.46724 10.0344 7.10108 9.65194C7.6682 10.0385 8.32513 10.26 9.01 10.26C9.69614 10.26 10.26 9.69614 10.26 9.01C10.26 8.32386 9.69614 7.76 9.01 7.76C8.94821 7.76 8.88467 7.75168 8.81901 7.73399C8.91515 7.53071 8.99781 7.3186 9.06313 7.09845C9.73321 7.06553 10.25 6.51117 10.25 5.85C10.25 5.16386 9.68614 4.6 9 4.6H8.07417C7.8703 4.20151 7.46202 3.92 6.97 3.92C6.47798 3.92 6.0697 4.20151 5.86583 4.6H4.94C4.25386 4.6 3.69 5.16386 3.69 5.85C3.69 6.53614 4.25386 7.1 4.94 7.1H6.291C5.95754 7.50902 5.47257 7.76 4.94 7.76C4.25386 7.76 3.69 8.32386 3.69 9.01C3.69 9.69614 4.25386 10.26 4.94 10.26Z" fill="#2E3134" stroke="#2E3134"/>
<path d="M9 22.75C4.73 22.75 1.25 19.27 1.25 15C1.25 14.59 1.59 14.25 2 14.25C2.41 14.25 2.75 14.59 2.75 15C2.75 17.96 4.81 20.44 7.58 21.09L7.31 20.64C7.1 20.28 7.21 19.82 7.57 19.61C7.92 19.4 8.39 19.51 8.6 19.87L9.65 21.62C9.79 21.85 9.79 22.14 9.66 22.37C9.52 22.6 9.27 22.75 9 22.75Z" fill="#2E3134"/>
<path d="M21.9999 9.75C21.5899 9.75 21.2499 9.41 21.2499 9C21.2499 6.04 19.1899 3.56 16.4199 2.91L16.6899 3.36C16.8999 3.72 16.7899 4.18 16.4299 4.39C16.0799 4.6 15.6099 4.49 15.3999 4.13L14.3499 2.38C14.2099 2.15 14.2099 1.86 14.3399 1.63C14.4799 1.4 14.7299 1.25 14.9999 1.25C19.2699 1.25 22.7499 4.73 22.7499 9C22.7499 9.41 22.4099 9.75 21.9999 9.75Z" fill="#2E3134"/>
<path d="M16.9198 11.8501C14.1198 11.8501 11.8398 14.1201 11.8398 16.9301C11.8398 19.7301 14.1098 22.0101 16.9198 22.0101C19.7198 22.0101 21.9998 19.7401 21.9998 16.9301C21.9998 14.1201 19.7298 11.8501 16.9198 11.8501ZM19.3998 19.3401C19.0298 19.5201 18.5798 19.3801 18.3898 19.0001L18.2198 18.6601H15.6298L15.4598 19.0001C15.3298 19.2601 15.0598 19.4101 14.7898 19.4101C14.6798 19.4101 14.5598 19.3801 14.4598 19.3301C14.0898 19.1401 13.9398 18.6901 14.1198 18.3201L16.2598 14.0501C16.3898 13.8001 16.6498 13.6401 16.9298 13.6401C17.2098 13.6401 17.4698 13.8001 17.5998 14.0601L19.7398 18.3301C19.9198 18.7001 19.7698 19.1501 19.3998 19.3401Z" fill="#2E3134"/>
<path d="M16.3799 17.1601H17.4699L16.9199 16.0701L16.3799 17.1601Z" fill="#2E3134"/>
</svg>
